# xmcd CD database file
#
# Track frame offsets:
#	150
#	15942
#	33327
#	48938
#	66808
#	80565
#	98537
#	111833
#	121747
#	135838
#	153573
#	165611
#	179286
#	195544
#	212841
#
# Disc length: 3155 seconds
#
# Revision: 2
# Processed by: cddbd v1.5.1PL0 Copyright (c) Steve Scherf et al.
# Submitted via: CDex 1.51
#
DISCID=b50c510f
DTITLE=Various Artist - Kultschlager der 80er - CD 3
DYEAR=2000
DGENRE=Deutscher Schlager
TTITLE0=Nur ein kleines Stück Papier - Wolfgang Petry
TTITLE1=Der Andere - Peter Orloff
TTITLE2=No me hables - Nina and Mike
TTITLE3=Bist du jetzt frei - Bernd Clüver 
TTITLE4=Baby, i love you - Andreas Haas
TTITLE5=Er war da als ich dich brauchte - Anne Karin
TTITLE6=Heißer Sand - Kristina Bach 
TTITLE7=Surfen auf'm Baggersee - Die Strandjungs
TTITLE8=Noch einen Wein Maria - Cindy and Bert 
TTITLE9=Du bist mein erster Gedanke - Nenno and die Romatic Flamingos
TTITLE10=Hallo guten Morgen Deutschland - Tom Astor
TTITLE11=Am weissen Strand von Helgoland - Niko
TTITLE12=Freundin - Anne Haigis 
TTITLE13=Sehnsucht - Purple Schulz 
TTITLE14=Niemals geht man so ganz - Trude Herr 
EXTD=YEAR: 2000
EXTT0=
EXTT1=
EXTT2=
EXTT3=
EXTT4=
EXTT5=
EXTT6=
EXTT7=
EXTT8=
EXTT9=
EXTT10=
EXTT11=
EXTT12=
EXTT13=
EXTT14=
PLAYORDER=
